<svg width="112" height="38" viewBox="0 0 112 38" fill="none" xmlns="http://www.w3.org/2000/svg">
<path d="M15.3477 10.7812H17.8281L21.4805 21.2207L25.1328 10.7812H27.6133L22.4766 25H20.4844L15.3477 10.7812ZM14.0098 10.7812H16.4805L16.9297 20.957V25H14.0098V10.7812ZM26.4805 10.7812H28.9609V25H26.0312V20.957L26.4805 10.7812ZM34.9473 22.9492L37.291 14.4336H40.2305L36.666 25H34.8887L34.9473 22.9492ZM33.3359 14.4336L35.6895 22.959L35.7383 25H33.9512L30.3867 14.4336H33.3359ZM58.2188 10.7812V25H55.2891L49.5762 15.4688V25H46.6465V10.7812H49.5762L55.2988 20.3223V10.7812H58.2188ZM65.4551 25.1953C64.6348 25.1953 63.8991 25.0651 63.248 24.8047C62.597 24.5378 62.0436 24.1699 61.5879 23.7012C61.1387 23.2324 60.7936 22.6888 60.5527 22.0703C60.3118 21.4453 60.1914 20.7812 60.1914 20.0781V19.6875C60.1914 18.8867 60.3053 18.1543 60.5332 17.4902C60.7611 16.8262 61.0866 16.25 61.5098 15.7617C61.9395 15.2734 62.4603 14.8991 63.0723 14.6387C63.6842 14.3717 64.3743 14.2383 65.1426 14.2383C65.8913 14.2383 66.5553 14.362 67.1348 14.6094C67.7142 14.8568 68.1992 15.2083 68.5898 15.6641C68.987 16.1198 69.2865 16.6667 69.4883 17.3047C69.6901 17.9362 69.791 18.6393 69.791 19.4141V20.5859H61.3926V18.7109H67.0273V18.4961C67.0273 18.1055 66.9557 17.7572 66.8125 17.4512C66.6758 17.1387 66.4674 16.8913 66.1875 16.709C65.9076 16.5267 65.5495 16.4355 65.1133 16.4355C64.7422 16.4355 64.4232 16.5169 64.1562 16.6797C63.8893 16.8424 63.6712 17.0703 63.502 17.3633C63.3392 17.6562 63.2155 18.0013 63.1309 18.3984C63.0527 18.7891 63.0137 19.2188 63.0137 19.6875V20.0781C63.0137 20.5013 63.0723 20.8919 63.1895 21.25C63.3132 21.6081 63.4857 21.9173 63.707 22.1777C63.9349 22.4382 64.2083 22.64 64.5273 22.7832C64.8529 22.9264 65.2207 22.998 65.6309 22.998C66.1387 22.998 66.6107 22.9004 67.0469 22.7051C67.4896 22.5033 67.8704 22.2005 68.1895 21.7969L69.5566 23.2812C69.3353 23.6003 69.0326 23.9062 68.6484 24.1992C68.2708 24.4922 67.8151 24.7331 67.2812 24.9219C66.7474 25.1042 66.1387 25.1953 65.4551 25.1953ZM74.4102 22.2656L76.6074 14.4336H78.3945L77.8184 17.5098L75.6211 25H74.127L74.4102 22.2656ZM73.2969 14.4336L74.8691 22.2559L75.0156 25H73.2578L70.582 14.4336H73.2969ZM80.4062 22.1289L81.9395 14.4336H84.6641L81.9883 25H80.2402L80.4062 22.1289ZM78.6387 14.4336L80.8262 22.207L81.1289 25H79.625L77.4277 17.5195L76.8711 14.4336H78.6387ZM91.793 22.0801C91.793 21.8783 91.7344 21.696 91.6172 21.5332C91.5 21.3704 91.2819 21.2207 90.9629 21.084C90.6504 20.9408 90.1979 20.8105 89.6055 20.6934C89.0716 20.5762 88.5736 20.4297 88.1113 20.2539C87.6556 20.0716 87.2585 19.8535 86.9199 19.5996C86.5879 19.3457 86.3275 19.0462 86.1387 18.7012C85.9499 18.3496 85.8555 17.9492 85.8555 17.5C85.8555 17.0573 85.9499 16.6406 86.1387 16.25C86.334 15.8594 86.6107 15.5143 86.9688 15.2148C87.3333 14.9089 87.776 14.6712 88.2969 14.502C88.8242 14.3262 89.4167 14.2383 90.0742 14.2383C90.9922 14.2383 91.7799 14.3848 92.4375 14.6777C93.1016 14.9707 93.6094 15.3743 93.9609 15.8887C94.319 16.3965 94.498 16.9759 94.498 17.627H91.6855C91.6855 17.3535 91.627 17.1094 91.5098 16.8945C91.3991 16.6732 91.2233 16.5007 90.9824 16.377C90.748 16.2467 90.4421 16.1816 90.0645 16.1816C89.752 16.1816 89.4818 16.237 89.2539 16.3477C89.026 16.4518 88.8503 16.5951 88.7266 16.7773C88.6094 16.9531 88.5508 17.1484 88.5508 17.3633C88.5508 17.526 88.5833 17.6725 88.6484 17.8027C88.7201 17.9264 88.834 18.0404 88.9902 18.1445C89.1465 18.2487 89.3483 18.3464 89.5957 18.4375C89.8496 18.5221 90.1621 18.6003 90.5332 18.6719C91.2949 18.8281 91.9753 19.0332 92.5742 19.2871C93.1732 19.5345 93.6484 19.873 94 20.3027C94.3516 20.7259 94.5273 21.2826 94.5273 21.9727C94.5273 22.4414 94.4232 22.8711 94.2148 23.2617C94.0065 23.6523 93.707 23.9941 93.3164 24.2871C92.9258 24.5736 92.457 24.7982 91.9102 24.9609C91.3698 25.1172 90.7611 25.1953 90.084 25.1953C89.1009 25.1953 88.2676 25.0195 87.584 24.668C86.9069 24.3164 86.3926 23.8704 86.041 23.3301C85.696 22.7832 85.5234 22.2233 85.5234 21.6504H88.1895C88.2025 22.0345 88.3001 22.3438 88.4824 22.5781C88.6712 22.8125 88.9089 22.9818 89.1953 23.0859C89.4883 23.1901 89.804 23.2422 90.1426 23.2422C90.5072 23.2422 90.8099 23.1934 91.0508 23.0957C91.2917 22.9915 91.474 22.8548 91.5977 22.6855C91.7279 22.5098 91.793 22.3079 91.793 22.0801Z" fill="white"/>
</svg>
